<svg xmlns="http://www.w3.org/2000/svg" version="1.1" viewBox="-5.0 -10.0 110.0 135.0">
 <path d="m96.875 92.531v3.1094h-14.086v-3.1094zm-79.664 0v3.1094h-14.086v-3.1094zm64.391 0v3.1094h-63.203v-3.1094zm-40.902-1.1875h-2.707v-27.043h24.016v27.043h-2.707v-7.6797c0-6.4102-2.1328-11.234-8.9922-15.367-0.1875-0.11328-0.42578-0.11328-0.61328 0-6.8633 4.1328-8.9961 8.957-8.9961 15.367zm44.648 0v-4.7227c0-0.32812 0.26562-0.59375 0.59375-0.59375h5.3633c0.32812 0 0.59375 0.26562 0.59375 0.59375v4.7227h2.9492v-8.8555h-12.059v8.8555zm-3.7461 0h-3.0117v-30.219h3.0117zm-73.809 0v-4.7227c0-0.32812 0.26562-0.59375 0.59375-0.59375h5.3672c0.32422 0 0.59375 0.26562 0.59375 0.59375v4.7227h2.8633v-8.8555h-12.059v8.8555zm82.922 0v-4.1289h-4.1797v4.1289zm-77.555 0v-4.1289h-4.1797v4.1289zm23.645 0v-27.637c0-0.32812 0.26953-0.59375 0.59375-0.59375h25.203c0.32813 0 0.59375 0.26562 0.59375 0.59375v27.637h14.207v-30.219h-54.805v30.219zm-15.395-30.219v30.219h-3.0117v-30.219zm20.477 30.219v-7.6797c0-5.8945 1.9453-10.344 8.1133-14.164 6.168 3.8203 8.1133 8.2695 8.1133 14.164v7.6797h-3.9297v-9.3906c0-0.32812-0.26562-0.59375-0.59375-0.59375h-7.1797c-0.32422 0-0.59375 0.26562-0.59375 0.59375v9.3906zm11.109 0v-8.7969h-5.9922v8.7969zm32.352-10.043v-5.0703c0-0.32812 0.26562-0.58984 0.59375-0.58984h5.3633c0.32812 0 0.59375 0.26172 0.59375 0.58984v5.0703h2.9492v-7.3516h-12.059v7.3516zm-77.555 0v-5.0703c0-0.32812 0.26562-0.58984 0.59375-0.58984h5.3672c0.32422 0 0.59375 0.26172 0.59375 0.58984v5.0703h2.8633v-7.3516h-12.059v7.3516zm82.922 0v-4.4766h-4.1797v4.4766zm-77.555 0v-4.4766h-4.1797v4.4766zm72.188-8.5391v-4.7227c0-0.32422 0.26562-0.59375 0.59375-0.59375h5.3633c0.32812 0 0.59375 0.26953 0.59375 0.59375v4.7227h2.9492v-7.3555h-12.059v7.3555zm-77.555 0v-4.7227c0-0.32422 0.26562-0.59375 0.59375-0.59375h5.3672c0.32422 0 0.59375 0.26953 0.59375 0.59375v4.7227h2.8633v-7.3555h-12.059v7.3555zm82.922 0v-4.1289h-4.1797v4.1289zm-77.555 0v-4.1289h-4.1797v4.1289zm72.188-8.543v-4.7188c0-0.32812 0.26562-0.59375 0.59375-0.59375h5.3633c0.32812 0 0.59375 0.26562 0.59375 0.59375v4.7188h2.9492v-7.3516h-12.059v7.3516zm-77.555 0v-4.7188c0-0.32812 0.26562-0.59375 0.59375-0.59375h5.3672c0.32422 0 0.59375 0.26562 0.59375 0.59375v4.7188h2.8633v-7.3516h-12.059v7.3516zm82.922 0v-4.125h-4.1797v4.125zm-77.555 0v-4.125h-4.1797v4.125zm68.441-4.2812h-63.203v-4.3672h63.203zm3.7461-4.2578v-4.7188c0-0.32813 0.26562-0.59375 0.59375-0.59375h5.3633c0.32812 0 0.59375 0.26562 0.59375 0.59375v4.7188h2.9492v-7.3516h-12.059v7.3516zm-77.555 0v-4.7188c0-0.32813 0.26562-0.59375 0.59375-0.59375h5.3672c0.32422 0 0.59375 0.26562 0.59375 0.59375v4.7188h2.8633v-7.3516h-12.059v7.3516zm82.922 0v-4.1289h-4.1797v4.1289zm-77.555 0v-4.1289h-4.1797v4.1289zm68.441-1.2969h-63.203v-6.0547h63.203zm-75.387-14.598h-1.0625v7.3555h2.6406v-4.7227c0-0.32422 0.26562-0.59375 0.59375-0.59375h5.3672c0.32422 0 0.59375 0.26953 0.59375 0.59375v4.7227h2.8633v-7.3555zm6.9453 7.3555v-4.1289h-4.1797v4.1289zm64.57 0v-9.3672h-55.461v9.3672h14.074v-3.6367c0-0.32812 0.26562-0.59375 0.59375-0.59375h26.129c0.32812 0 0.58984 0.26562 0.58984 0.59375v3.6367zm-15.258 0v-3.043h-24.941v3.043zm32.375 0v-7.3555h-12.059v7.3555h2.5586v-4.7227c0-0.32422 0.26562-0.59375 0.59375-0.59375h5.3633c0.32812 0 0.59375 0.26953 0.59375 0.59375v4.7227zm-4.1328 0v-4.1289h-4.1797v4.1289zm2.4805-15.641v7.0977h-8.7539v-7.0977zm-77.637 0v7.0977h-8.7539v-7.0977zm46.992-17.883c7.5469 6.9102 12.098 14.461 14.52 22.969h-54.137c2.418-8.5078 6.9688-16.059 14.516-22.969zm-55.73 16.695c0.125-2.9375 1.25-5.2148 4.3633-7.1875 3.1133 1.9727 4.2344 4.25 4.3633 7.1875zm77.633 0c0.12891-2.9375 1.25-5.2148 4.3633-7.1875 3.1172 1.9727 4.2383 4.25 4.3633 7.1875zm-74.258-7.9609v-2.1641c0-0.54688 0.44141-0.98828 0.98828-0.98828s0.98828 0.44141 0.98828 0.98828v2.1641c-0.21875-0.14453-0.44531-0.28906-0.68359-0.42969-0.1875-0.11719-0.42188-0.11719-0.60938 0-0.23828 0.14062-0.46484 0.28516-0.68359 0.42969zm77.633 0v-2.1641c0-0.54688 0.44531-0.98828 0.98828-0.98828 0.54688 0 0.99219 0.44141 0.99219 0.98828v2.1641c-0.21875-0.14453-0.44531-0.28906-0.68359-0.42969-0.1875-0.11719-0.42188-0.11719-0.61328 0-0.23438 0.14062-0.46484 0.28516-0.68359 0.42969zm-49.023-9.9414c0.58594-0.50391 1.1797-1.0039 1.7812-1.4883 2.0664-1.668 4.2227-3.2227 6.4414-4.6836 0.71484-0.46875 1.4375-0.92969 2.168-1.3828 0.19141-0.11719 0.38672-0.23828 0.58203-0.35547 0.058594-0.035156 0.11719-0.074219 0.17969-0.10938 0.015625-0.011719 0.027344-0.027344 0.042969-0.027344 0.019531 0 0.03125 0.015625 0.046875 0.027344 0.058594 0.035156 0.12109 0.074219 0.17969 0.10938 0.19531 0.11719 0.38672 0.23828 0.57813 0.35547 0.73047 0.45312 1.4531 0.91406 2.168 1.3828 2.2227 1.4609 4.3789 3.0156 6.4453 4.6836 0.60156 0.48438 1.1914 0.98438 1.7773 1.4883l0.023438 0.019532h-22.438z" fill-rule="evenodd"/>
<text x="0.0" y="117.5" font-size="5.0" font-weight="bold" font-family="Arbeit Regular, Helvetica, Arial-Unicode, Arial, Sans-serif" fill="#000000">Created by Anditii Creative</text><text x="0.0" y="122.5" font-size="5.0" font-weight="bold" font-family="Arbeit Regular, Helvetica, Arial-Unicode, Arial, Sans-serif" fill="#000000">from Noun Project</text></svg>