<svg xmlns="http://www.w3.org/2000/svg" data-name="Layer 68" viewBox="0 0 100 125" x="0px" y="0px"><rect x="21.75" y="50.7" width="14.95" height="8.78"/><rect x="63.3" y="50.7" width="15.71" height="8.78"/><path d="M21.75,95h2.83V85.78a4.64,4.64,0,0,1,9.28,0V95H36.7V61h-15Z"/><path d="M63.3,95h3.22V85.78a4.64,4.64,0,0,1,9.28,0V95H79V61H63.3Z"/><path d="M41.71,29.22a.75.75,0,0,1,.75-.75h3.1l.63-2.72h-8v8.5h3.51Z"/><path d="M54.44,28.47h3.1a.75.75,0,0,1,.75.75v5H61.8v-8.5h-8Z"/><path d="M56.79,35V30H53.84a.76.76,0,0,1-.73-.59L50,15.87,46.89,29.38a.76.76,0,0,1-.73.59H43.21v5a.75.75,0,0,1-.75.75H38.2V95h4.64V79.26a7.18,7.18,0,1,1,14.36,0V95h4.6V35.75H57.54A.75.75,0,0,1,56.79,35ZM50,52.89a8.43,8.43,0,1,1,8.43-8.43A8.44,8.44,0,0,1,50,52.89Z"/><path d="M49.27,12.35a.75.75,0,0,1,1.46,0l2.74,11.9h8l-7-18.5h-9l-7,18.5h8Z"/><path d="M12.23,43.12a.78.78,0,0,1,1.3,0L17,49.2h2.92L15.59,37.77H10.17L5.85,49.2H8.77Z"/><circle cx="50" cy="44.46" r="6.93"/><path d="M15.91,50.33l-3-5.32-3,5.32a.73.73,0,0,1-.65.38H5.51V95H8.24V85.78a4.64,4.64,0,0,1,9.28,0V95h2.73V50.71H16.56A.73.73,0,0,1,15.91,50.33Zm1.61,26.33a.75.75,0,0,1-.75.75H9a.75.75,0,0,1-.75-.75V68.88A.76.76,0,0,1,9,68.13h7.78a.76.76,0,0,1,.75.75Zm0-21.54V62.9a.76.76,0,0,1-.75.75H9a.76.76,0,0,1-.75-.75V55.12A.76.76,0,0,1,9,54.37h7.78A.76.76,0,0,1,17.52,55.12Z"/><path d="M87.23,43.12a.78.78,0,0,1,1.3,0L92,49.2h2.92L90.59,37.77H85.17L80.85,49.2h2.92Z"/><path d="M90.91,50.33l-3-5.32-3,5.32a.73.73,0,0,1-.65.38H80.51V95h2.73V85.78a4.64,4.64,0,0,1,9.28,0V95h2.73V50.71H91.56A.73.73,0,0,1,90.91,50.33Zm2,25.44a.74.74,0,0,1-.75.75H84.33a.75.75,0,0,1-.75-.75V68a.76.76,0,0,1,.75-.75h7.78a.75.75,0,0,1,.75.75Zm0-21.54V62a.75.75,0,0,1-.75.75H84.33a.76.76,0,0,1-.75-.75V54.23a.75.75,0,0,1,.75-.75h7.78A.74.74,0,0,1,92.86,54.23Z"/><path d="M50,73.58a5.69,5.69,0,0,0-5.68,5.68V95H55.7V79.26A5.69,5.69,0,0,0,50,73.58Z"/><path d="M12.88,82.64a3.15,3.15,0,0,0-3.14,3.14V95H16V85.78A3.15,3.15,0,0,0,12.88,82.64Z"/><path d="M29.22,82.64a3.15,3.15,0,0,0-3.14,3.14V95h6.28V85.78A3.15,3.15,0,0,0,29.22,82.64Z"/><path d="M71.16,82.64A3.15,3.15,0,0,0,68,85.78V95H74.3V85.78A3.15,3.15,0,0,0,71.16,82.64Z"/><path d="M87.88,82.64a3.15,3.15,0,0,0-3.14,3.14V95H91V85.78A3.15,3.15,0,0,0,87.88,82.64Z"/><rect x="9.74" y="69.63" width="6.28" height="6.28"/><rect x="9.74" y="55.87" width="6.28" height="6.28"/><rect x="85.08" y="68.74" width="6.28" height="6.28"/><rect x="85.08" y="54.98" width="6.28" height="6.28"/><text x="0" y="115" fill="#000000" font-size="5px" font-weight="bold" font-family="'Helvetica Neue', Helvetica, Arial-Unicode, Arial, Sans-serif">Created by Lars Meiertoberens</text><text x="0" y="120" fill="#000000" font-size="5px" font-weight="bold" font-family="'Helvetica Neue', Helvetica, Arial-Unicode, Arial, Sans-serif">from the Noun Project</text></svg>