<svg xmlns:dc="http://purl.org/dc/elements/1.1/" xmlns:cc="http://creativecommons.org/ns#" xmlns:rdf="http://www.w3.org/1999/02/22-rdf-syntax-ns#" xmlns:svg="http://www.w3.org/2000/svg" xmlns="http://www.w3.org/2000/svg" xmlns:sodipodi="http://sodipodi.sourceforge.net/DTD/sodipodi-0.dtd" xmlns:inkscape="http://www.inkscape.org/namespaces/inkscape" viewBox="0 0 12.7 15.875" version="1.1" x="0px" y="0px"><g transform="translate(0,-284.29998)"><path style="" d="m 5.8406,288.39088 0.031,-0.45223 h 0.9576 l 0.031,0.45223 z" fill="#000000" stroke="none"/><path style="" d="m 5.9066,287.41362 h 0.8867 l 0.026,0.37942 h -0.938 z" fill="#000000" stroke="none"/><path style="" d="m 5.9774,286.36705 0.068,-1.00666 h 0.609 l 0.068,1.00666 z" fill="#000000" stroke="none"/><path style="" d="m 5.5486,286.51266 a 0.41631977,0.41631977 0 0 0 0.3249,0.35142 h 0.953 a 0.41631977,0.41631977 0 0 0 0.3249,-0.35142 z" fill="#000000" stroke="none"/><path style="" d="m 5.716,288.88791 h 1.2679 a 0.41631977,0.41631977 0 0 0 0.3249,-0.35142 H 5.3912 a 0.41631977,0.41631977 0 0 0 0.3248,0.35142 z" fill="#000000" stroke="none"/><path style="" d="m 5.519,291.49767 h 1.6619 a 0.41631977,0.41631977 0 0 0 0.3249,-0.35142 H 5.1941 a 0.41631977,0.41631977 0 0 0 0.3249,0.35142 z" fill="#000000" stroke="none"/><path style="" d="m 4.989,293.87501 a 0.41631977,0.41631977 0 0 0 0.3244,0.35143 h 2.0732 a 0.41631977,0.41631977 0 0 0 0.3243,-0.35143 z" fill="#000000" stroke="none"/><path style="" d="m 5.9165,287.26801 h 0.867 l -0.017,-0.25832 h -0.832 z" fill="#000000" stroke="none"/><path style="" d="m 5.8746,296.46937 0.05,-2.09733 H 5.3744 l -0.1301,2.09733 z" fill="#000000" stroke="none"/><path style="" d="M 5.9892,291.64258 H 5.5796 l -0.1411,2.08753 h 0.5011 z" fill="#000000" stroke="none"/><path style="" d="M 6.0511,289.03352 H 5.7766 l -0.133,1.96712 h 0.3608 z" fill="#000000" stroke="none"/><path style="" d="M 6.68,296.46937 6.63,294.37204 H 6.0697 l -0.05,2.09733 z" fill="#000000" stroke="none"/><path style="" d="m 6.7756,294.37204 h 0.5502 l 0.1301,2.09733 H 6.8254 Z" fill="#000000" stroke="none"/><path style="" d="m 6.615,293.73011 -0.05,-2.08753 H 6.1342 l -0.05,2.08753 z" fill="#000000" stroke="none"/><path style="" d="m 6.7108,291.64258 h 0.4096 l 0.1411,2.08753 H 6.7604 Z" fill="#000000" stroke="none"/><path style="" d="m 6.6488,289.03352 h 0.2746 l 0.133,1.96712 H 6.6956 Z" fill="#000000" stroke="none"/><path style="" d="m 6.5501,291.00064 -0.047,-1.96712 H 6.1962 l -0.047,1.96712 z" fill="#000000" stroke="none"/><path style="" d="m 6.2628,285.21478 h 0.1744 v -0.29962 a 0.08724097,0.08724097 0 0 0 -0.1744,0 z" fill="#000000" stroke="none"/></g><text x="0" y="27.7" fill="#000000" font-size="5px" font-weight="bold" font-family="'Helvetica Neue', Helvetica, Arial-Unicode, Arial, Sans-serif">Created by Phạm Thanh Lộc</text><text x="0" y="32.7" fill="#000000" font-size="5px" font-weight="bold" font-family="'Helvetica Neue', Helvetica, Arial-Unicode, Arial, Sans-serif">from the Noun Project</text></svg>