<svg xmlns="http://www.w3.org/2000/svg" xmlns:xlink="http://www.w3.org/1999/xlink" version="1.1" x="0px" y="0px" viewBox="0 0 100 125" enable-background="new 0 0 100 100" xml:space="preserve"><path d="M31.128,67.462v-2.97h-0.777h-0.015c0,0,0-1.217,0-1.626c0-0.313,0.538-0.619,0.792-0.745v-2.658h-0.777h-0.015  c0,0,0-1.218,0-1.626c0-0.313,0.538-0.619,0.792-0.746v-1.873h-2.152V42.886h1.36v-2.645h-0.772c0,0,0-1.034,0-1.381  c0-0.34,0.734-0.664,0.772-0.682v-2.081h-1.831v-9.102h1.029v-2.743H28.88c0,0,0-0.875,0-1.17c0-0.287,0.624-0.562,0.654-0.576  V21.31h-1.217v-5.724c0.22-0.364,1.586-2.878-1.111-5.024l-0.165-0.104c-0.581-0.362-1.787-1.117-1.787-1.979V5h-0.325v3.479  c0,0.88-1.271,1.664-1.813,1.999l-0.149,0.095c-2.685,2.138-1.309,4.65-1.087,5.015v5.724h-1.226v1.199  c0.003,0,0.016-0.007,0.016-0.007v-0.001l0.001,0.001l0.001-0.001c0,0,0.663,0.286,0.663,0.581s0,1.17,0,1.17h-0.663H20.67h-0.016  v2.743h1.028v9.102H19.85v2.085c0.003,0,0.02-0.009,0.02-0.009l0,0h0.001l0,0c0,0,0.783,0.338,0.783,0.687c0,0.347,0,1.381,0,1.381  H19.87h-0.001h-0.02v2.645h1.215v12.17h-2.152v1.973c0,0,0.011,0.005,0.015,0.007v-0.007c0,0,0.923,0.398,0.923,0.809  c0,0.408,0,1.626,0,1.626h-0.015h-0.908h-0.015v2.597c0,0,0.011,0.004,0.015,0.006v-0.006c0,0,0.923,0.397,0.923,0.808  c0,0.409,0,1.626,0,1.626h-0.015h-0.908h-0.015v3.132h0.162c1.005,0,1.448,1.083,1.512,1.255V95h8.867l0.01-26.18  C29.516,68.682,30,67.462,31.128,67.462z M26.662,18.986c0-0.295,0.664-0.581,0.664-0.581s0.664,0.286,0.664,0.581  c0,0.295,0,1.738,0,1.738h-1.328C26.662,20.725,26.662,19.281,26.662,18.986z M24.443,18.986c0-0.295,0.663-0.581,0.663-0.581  s0.666,0.286,0.666,0.581c0,0.295,0,1.738,0,1.738h-1.329C24.443,20.725,24.443,19.281,24.443,18.986z M24.443,23.083  c0-0.295,0.663-0.581,0.663-0.581s0.666,0.286,0.666,0.581s0,1.17,0,1.17h-0.666h-0.663C24.443,24.253,24.443,23.378,24.443,23.083z   M24.324,38.86c0-0.349,0.783-0.687,0.783-0.687s0.786,0.338,0.786,0.687c0,0.347,0,1.381,0,1.381h-0.786h-0.783  C24.324,40.241,24.324,39.207,24.324,38.86z M22.933,64.492H22.01h-0.923c0,0,0-1.217,0-1.626s0.923-0.808,0.923-0.808  s0.923,0.397,0.923,0.808C22.933,63.275,22.933,64.492,22.933,64.492z M22.933,59.463H22.01h-0.923c0,0,0-1.218,0-1.626  c0-0.409,0.923-0.81,0.923-0.81s0.923,0.399,0.923,0.81C22.933,58.245,22.933,59.463,22.933,59.463z M23.272,40.241h-0.783h-0.785  c0,0,0-1.034,0-1.381c0-0.349,0.785-0.687,0.785-0.687s0.783,0.338,0.783,0.687C23.272,39.207,23.272,40.241,23.272,40.241z   M23.551,24.253h-0.662h-0.665c0,0,0-0.875,0-1.17s0.665-0.581,0.665-0.581s0.662,0.286,0.662,0.581S23.551,24.253,23.551,24.253z   M23.551,20.725h-1.327c0,0,0-1.443,0-1.738c0-0.295,0.665-0.581,0.665-0.581s0.662,0.286,0.662,0.581  C23.551,19.282,23.551,20.725,23.551,20.725z M26.016,64.492h-0.923H24.17c0,0,0-1.217,0-1.626s0.923-0.808,0.923-0.808  s0.923,0.397,0.923,0.808C26.016,63.275,26.016,64.492,26.016,64.492z M26.016,59.463h-0.923H24.17c0,0,0-1.218,0-1.626  c0-0.409,0.923-0.81,0.923-0.81s0.923,0.399,0.923,0.81C26.016,58.245,26.016,59.463,26.016,59.463z M26.662,23.083  c0-0.295,0.664-0.581,0.664-0.581s0.664,0.286,0.664,0.581s0,1.17,0,1.17h-0.664h-0.664C26.662,24.253,26.662,23.378,26.662,23.083z   M26.944,38.86c0-0.349,0.783-0.687,0.783-0.687s0.785,0.338,0.785,0.687c0,0.347,0,1.381,0,1.381h-0.785h-0.783  C26.944,40.241,26.944,39.207,26.944,38.86z M29.099,64.492h-0.923h-0.923c0,0,0-1.217,0-1.626s0.923-0.808,0.923-0.808  s0.923,0.397,0.923,0.808C29.099,63.275,29.099,64.492,29.099,64.492z M29.099,59.463h-0.923h-0.923c0,0,0-1.218,0-1.626  c0-0.409,0.923-0.81,0.923-0.81s0.923,0.399,0.923,0.81C29.099,58.245,29.099,59.463,29.099,59.463z"/><path d="M37.951,46.19v-7.44h0.845v-2.243h-0.535c0,0,0-0.716,0-0.957c0-0.235,0.51-0.46,0.535-0.472V34.1h-0.997v-4.68  c0.181-0.298,1.296-2.353-0.907-4.108l-0.137-0.085c-0.475-0.296-1.461-0.913-1.461-1.618v-2.845h-0.266v2.845  c0,0.719-1.04,1.36-1.483,1.634l-0.121,0.077c-2.196,1.748-1.07,3.803-0.888,4.101v4.68h-1.004v0.98  c0.002,0,0.013-0.005,0.013-0.005v-0.001l0,0h0.002c0,0,0.543,0.233,0.543,0.475c0,0.242,0,0.957,0,0.957h-0.543h-0.002h-0.013  v2.243h0.842v7.44 M36.445,32.2c0-0.241,0.543-0.475,0.543-0.475s0.542,0.233,0.542,0.475c0,0.24,0,1.421,0,1.421h-1.085  C36.445,33.621,36.445,32.44,36.445,32.2z M34.63,32.2c0-0.241,0.545-0.475,0.545-0.475s0.543,0.233,0.543,0.475  c0,0.24,0,1.421,0,1.421H34.63C34.63,33.621,34.63,32.44,34.63,32.2z M34.63,35.55c0-0.241,0.545-0.475,0.545-0.475  s0.543,0.233,0.543,0.475c0,0.242,0,0.957,0,0.957h-0.543H34.63C34.63,36.507,34.63,35.791,34.63,35.55z M33.902,36.507H33.36  h-0.543c0,0,0-0.716,0-0.957c0-0.241,0.543-0.475,0.543-0.475s0.542,0.233,0.542,0.475C33.902,35.792,33.902,36.507,33.902,36.507z   M33.902,33.621h-1.085c0,0,0-1.181,0-1.421c0-0.241,0.543-0.475,0.543-0.475s0.542,0.233,0.542,0.475  C33.902,32.44,33.902,33.621,33.902,33.621z M36.445,35.55c0-0.241,0.543-0.475,0.543-0.475s0.542,0.233,0.542,0.475  c0,0.242,0,0.957,0,0.957h-0.542h-0.543C36.445,36.507,36.445,35.791,36.445,35.55z"/><path d="M70.536,68.82L70.547,95h8.867V68.879c0.062-0.172,0.507-1.255,1.512-1.255h0.162v-3.132h-0.015h-0.908H80.15  c0,0,0-1.217,0-1.626s0.923-0.808,0.923-0.808v0.006c0.004-0.002,0.015-0.006,0.015-0.006v-2.597h-0.015h-0.908H80.15  c0,0,0-1.218,0-1.626c0-0.409,0.923-0.809,0.923-0.809v0.007c0.004-0.002,0.015-0.007,0.015-0.007v-1.973h-2.152V42.884h1.215  v-2.645h-0.02H80.13h-0.782c0,0,0-1.034,0-1.381c0-0.349,0.782-0.687,0.782-0.687l0,0h0.001l0,0c0,0,0.018,0.009,0.02,0.009v-2.085  h-1.832v-9.102h1.029V24.25h-0.017h-0.002h-0.663c0,0,0-0.875,0-1.17s0.663-0.581,0.663-0.581L79.33,22.5l0.001-0.001V22.5  c0,0,0.013,0.007,0.017,0.007v-1.199h-1.227v-5.724c0.222-0.364,1.598-2.877-1.087-5.015l-0.149-0.095  c-0.542-0.335-1.812-1.119-1.812-1.999V5h-0.325v3.479c0,0.862-1.206,1.617-1.787,1.979l-0.165,0.104  c-2.697,2.146-1.331,4.66-1.111,5.024v5.724h-1.217v1.196c0.03,0.014,0.654,0.289,0.654,0.576c0,0.295,0,1.17,0,1.17h-0.654v2.743  h1.029v9.102h-1.831v2.081c0.038,0.018,0.772,0.342,0.772,0.682c0,0.347,0,1.381,0,1.381h-0.772v2.645h1.36v12.332h-2.152v1.873  c0.254,0.127,0.792,0.433,0.792,0.746c0,0.408,0,1.626,0,1.626H69.65h-0.777v2.658c0.254,0.126,0.792,0.432,0.792,0.745  c0,0.409,0,1.626,0,1.626H69.65h-0.777v2.97C70,67.462,70.484,68.682,70.536,68.82z M73.338,20.725H72.01c0,0,0-1.443,0-1.738  c0-0.295,0.664-0.581,0.664-0.581s0.664,0.286,0.664,0.581C73.338,19.282,73.338,20.725,73.338,20.725z M75.557,20.725h-1.328  c0,0,0-1.443,0-1.738c0-0.295,0.666-0.581,0.666-0.581s0.662,0.286,0.662,0.581C75.557,19.282,75.557,20.725,75.557,20.725z   M75.557,24.253h-0.662h-0.666c0,0,0-0.875,0-1.17s0.666-0.581,0.666-0.581s0.662,0.286,0.662,0.581S75.557,24.253,75.557,24.253z   M75.676,40.241h-0.783h-0.785c0,0,0-1.034,0-1.381c0-0.349,0.785-0.687,0.785-0.687s0.783,0.338,0.783,0.687  C75.676,39.207,75.676,40.241,75.676,40.241z M77.066,62.866c0-0.409,0.924-0.808,0.924-0.808s0.923,0.397,0.923,0.808  c0,0.409,0,1.626,0,1.626H77.99h-0.924C77.066,64.492,77.066,63.275,77.066,62.866z M77.066,57.837c0-0.409,0.924-0.81,0.924-0.81  s0.923,0.399,0.923,0.81c0,0.408,0,1.626,0,1.626H77.99h-0.924C77.066,59.463,77.066,58.245,77.066,57.837z M76.729,38.86  c0-0.349,0.783-0.687,0.783-0.687s0.784,0.338,0.784,0.687c0,0.347,0,1.381,0,1.381h-0.784h-0.783  C76.729,40.241,76.729,39.207,76.729,38.86z M76.449,23.083c0-0.295,0.662-0.581,0.662-0.581s0.664,0.286,0.664,0.581s0,1.17,0,1.17  h-0.664h-0.662C76.449,24.253,76.449,23.378,76.449,23.083z M76.449,18.986c0-0.295,0.662-0.581,0.662-0.581  s0.664,0.286,0.664,0.581c0,0.295,0,1.738,0,1.738h-1.326C76.449,20.725,76.449,19.281,76.449,18.986z M73.984,62.866  c0-0.409,0.923-0.808,0.923-0.808s0.923,0.397,0.923,0.808c0,0.409,0,1.626,0,1.626h-0.923h-0.923  C73.984,64.492,73.984,63.275,73.984,62.866z M73.984,57.837c0-0.409,0.923-0.81,0.923-0.81s0.923,0.399,0.923,0.81  c0,0.408,0,1.626,0,1.626h-0.923h-0.923C73.984,59.463,73.984,58.245,73.984,57.837z M73.338,24.253h-0.664H72.01  c0,0,0-0.875,0-1.17s0.664-0.581,0.664-0.581s0.664,0.286,0.664,0.581S73.338,24.253,73.338,24.253z M73.057,40.241h-0.783h-0.785  c0,0,0-1.034,0-1.381c0-0.349,0.785-0.687,0.785-0.687s0.783,0.338,0.783,0.687C73.057,39.207,73.057,40.241,73.057,40.241z   M70.9,62.866c0-0.409,0.924-0.808,0.924-0.808s0.923,0.397,0.923,0.808c0,0.409,0,1.626,0,1.626h-0.923H70.9  C70.9,64.492,70.9,63.275,70.9,62.866z M70.9,57.837c0-0.409,0.924-0.81,0.924-0.81s0.923,0.399,0.923,0.81c0,0.408,0,1.626,0,1.626  h-0.923H70.9C70.9,59.463,70.9,58.245,70.9,57.837z"/><path d="M70.7,54.895v-8.168H50H29.3v8.168h1.974c0-0.134,0-1.218,0-1.601c0-0.41,0.923-0.81,0.923-0.81s0.923,0.398,0.923,0.81  c0,0.408,0,1.625,0,1.625h-1.667v12.867h-0.324c-0.861,0-1.271,0.924-1.351,1.121V95h9.268V83.843c0-5.356,5.365-7.515,7.655-8.435  c0.204-0.083,0.383-0.155,0.528-0.217c1.732-0.75,2.658-1.352,2.698-1.377L50,73.768l0.073,0.049  c0.04,0.024,0.966,0.627,2.698,1.375c0.146,0.062,0.324,0.135,0.527,0.218c2.29,0.92,7.655,3.077,7.655,8.435V95h9.269V68.907  c-0.08-0.197-0.49-1.121-1.352-1.121h-0.324V54.919H66.88c0,0,0-1.217,0-1.625c0-0.41,0.923-0.81,0.923-0.81s0.924,0.398,0.924,0.81  c0,0.383,0,1.467,0,1.601H70.7z M63.913,47.476h1.846v2.171h-1.846V47.476z M57.979,47.476h1.847v2.171h-1.847V47.476z   M52.043,47.476h1.846v2.171h-1.846V47.476z M49.077,47.476H50h0.923v2.171H50h-0.923V47.476z M49.077,53.294  c0-0.41,0.923-0.81,0.923-0.81s0.923,0.398,0.923,0.81c0,0.408,0,1.625,0,1.625H50h-0.923  C49.077,54.919,49.077,53.702,49.077,53.294z M43.143,47.476h1.846v2.171h-1.846V47.476z M37.208,47.476h1.846v2.171h-1.846V47.476z   M31.273,49.646v-2.171h1.846v2.171H31.273z M35.294,93.753h-1.176h-1.177c0,0,0-2.426,0-2.884c0-0.456,1.177-0.901,1.177-0.901  s1.176,0.445,1.176,0.901C35.294,91.327,35.294,93.753,35.294,93.753z M35.294,86.182h-1.176h-1.177c0,0,0-2.428,0-2.884  c0-0.457,1.177-0.901,1.177-0.901s1.176,0.444,1.176,0.901C35.294,83.754,35.294,86.182,35.294,86.182z M35.294,79.082h-1.176  h-1.177c0,0,0-1.359,0-1.814c0-0.457,1.177-0.902,1.177-0.902s1.176,0.445,1.176,0.902C35.294,77.723,35.294,79.082,35.294,79.082z   M35.294,73.052h-1.176h-1.177c0,0,0-1.358,0-1.815s1.177-0.901,1.177-0.901s1.176,0.444,1.176,0.901S35.294,73.052,35.294,73.052z   M35.884,65.426H32.72c0,0,0-2.414,0-3.226s1.582-1.603,1.582-1.603s1.582,0.791,1.582,1.603S35.884,65.426,35.884,65.426z   M36.087,54.919h-1.846c0,0,0-1.217,0-1.625c0-0.41,0.921-0.81,0.921-0.81s0.925,0.398,0.925,0.81  C36.087,53.702,36.087,54.919,36.087,54.919z M36.087,49.646h-1.846v-2.171h1.846V49.646z M37.208,53.293  c0-0.408,0.923-0.809,0.923-0.809s0.923,0.399,0.923,0.809s0,1.626,0,1.626h-1.846C37.208,54.919,37.208,53.702,37.208,53.293z   M41.116,65.426h-3.164c0,0,0-2.414,0-3.226s1.582-1.603,1.582-1.603s1.582,0.791,1.582,1.603S41.116,65.426,41.116,65.426z   M42.021,54.919h-1.846c0,0,0-1.217,0-1.626s0.923-0.809,0.923-0.809s0.923,0.398,0.923,0.809S42.021,54.919,42.021,54.919z   M42.021,49.646h-1.846v-2.171h1.846V49.646z M43.143,53.293c0-0.408,0.924-0.809,0.924-0.809s0.922,0.399,0.922,0.809  s0,1.626,0,1.626h-1.846C43.143,54.919,43.143,53.702,43.143,53.293z M46.35,65.426h-3.164c0,0,0-2.414,0-3.226  s1.582-1.603,1.582-1.603s1.582,0.793,1.582,1.603C46.35,63.012,46.35,65.426,46.35,65.426z M47.957,54.919h-1.846  c0-0.004,0-1.217,0-1.625c0-0.409,0.921-0.808,0.921-0.808s0.925,0.397,0.925,0.808C47.957,53.702,47.957,54.915,47.957,54.919z   M47.957,49.646h-1.846v-2.171h1.846V49.646z M51.582,65.426H50h-1.582c0,0,0-2.414,0-3.226S50,60.598,50,60.598  s1.582,0.791,1.582,1.603S51.582,65.426,51.582,65.426z M52.043,54.919c0-0.004,0-1.217,0-1.625c0-0.409,0.925-0.808,0.925-0.808  s0.921,0.397,0.921,0.808c0,0.408,0,1.621,0,1.625H52.043z M56.814,65.426H53.65c0,0,0-2.414,0-3.226s1.582-1.603,1.582-1.603  s1.582,0.791,1.582,1.603S56.814,65.426,56.814,65.426z M56.857,54.919h-1.846c0,0,0-1.217,0-1.626c0-0.408,0.922-0.809,0.922-0.809  s0.924,0.399,0.924,0.809S56.857,54.919,56.857,54.919z M56.857,49.646h-1.846v-2.171h1.846V49.646z M57.979,54.919  c0,0,0-1.217,0-1.626s0.924-0.809,0.924-0.809s0.923,0.398,0.923,0.809s0,1.626,0,1.626H57.979z M62.048,65.426h-3.164  c0,0,0-2.414,0-3.226s1.582-1.603,1.582-1.603s1.582,0.791,1.582,1.603S62.048,65.426,62.048,65.426z M62.791,54.919h-1.846  c0,0,0-1.217,0-1.626c0-0.408,0.924-0.809,0.924-0.809s0.922,0.399,0.922,0.809S62.791,54.919,62.791,54.919z M62.791,49.646h-1.846  v-2.171h1.846V49.646z M63.913,53.294c0-0.41,0.925-0.81,0.925-0.81s0.921,0.398,0.921,0.81c0,0.408,0,1.625,0,1.625h-1.846  C63.913,54.919,63.913,53.702,63.913,53.294z M67.059,93.753h-1.177h-1.176c0,0,0-2.426,0-2.884c0-0.456,1.176-0.901,1.176-0.901  s1.177,0.445,1.177,0.901C67.059,91.327,67.059,93.753,67.059,93.753z M67.059,86.182h-1.177h-1.176c0,0,0-2.428,0-2.884  c0-0.457,1.176-0.901,1.176-0.901s1.177,0.444,1.177,0.901C67.059,83.754,67.059,86.182,67.059,86.182z M67.059,79.082h-1.177  h-1.176c0,0,0-1.359,0-1.814c0-0.457,1.176-0.902,1.176-0.902s1.177,0.445,1.177,0.902C67.059,77.723,67.059,79.082,67.059,79.082z   M67.059,73.052h-1.177h-1.176c0,0,0-1.358,0-1.815s1.176-0.901,1.176-0.901s1.177,0.444,1.177,0.901S67.059,73.052,67.059,73.052z   M67.279,62.2c0,0.812,0,3.226,0,3.226h-3.163c0,0,0-2.414,0-3.226s1.582-1.603,1.582-1.603S67.279,61.391,67.279,62.2z   M66.881,49.646v-2.171h1.846v2.171H66.881z"/><path d="M67.626,46.19v-7.44h0.842v-2.243h-0.013h-0.002H67.91c0,0,0-0.716,0-0.957c0-0.241,0.543-0.475,0.543-0.475h0.002l0,0  v0.001c0,0,0.011,0.005,0.013,0.005v-0.98h-1.004v-4.68c0.183-0.298,1.31-2.353-0.888-4.101l-0.121-0.077  c-0.443-0.273-1.482-0.915-1.482-1.634v-2.845h-0.267v2.845c0,0.705-0.985,1.322-1.461,1.618l-0.138,0.085  c-2.203,1.756-1.088,3.811-0.906,4.108v4.68h-0.997v0.978c0.024,0.012,0.534,0.236,0.534,0.472c0,0.241,0,0.957,0,0.957h-0.534  v2.243h0.845v7.44 M63.555,33.621h-1.084c0,0,0-1.181,0-1.421c0-0.241,0.541-0.475,0.541-0.475s0.543,0.233,0.543,0.475  C63.555,32.44,63.555,33.621,63.555,33.621z M65.37,33.621h-1.088c0,0,0-1.181,0-1.421c0-0.241,0.543-0.475,0.543-0.475  s0.545,0.233,0.545,0.475C65.37,32.44,65.37,33.621,65.37,33.621z M65.37,36.507h-0.545h-0.543c0,0,0-0.716,0-0.957  c0-0.241,0.543-0.475,0.543-0.475s0.545,0.233,0.545,0.475C65.37,35.792,65.37,36.507,65.37,36.507z M66.098,35.55  c0-0.241,0.543-0.475,0.543-0.475s0.543,0.233,0.543,0.475c0,0.242,0,0.957,0,0.957h-0.543h-0.543  C66.098,36.507,66.098,35.791,66.098,35.55z M66.098,32.2c0-0.241,0.543-0.475,0.543-0.475s0.543,0.233,0.543,0.475  c0,0.24,0,1.421,0,1.421h-1.086C66.098,33.621,66.098,32.44,66.098,32.2z M63.555,36.507h-0.543h-0.541c0,0,0-0.716,0-0.957  c0-0.241,0.541-0.475,0.541-0.475s0.543,0.233,0.543,0.475C63.555,35.792,63.555,36.507,63.555,36.507z"/><text x="0" y="115" fill="#000000" font-size="5px" font-weight="bold" font-family="'Helvetica Neue', Helvetica, Arial-Unicode, Arial, Sans-serif">Created by Shahed Syed</text><text x="0" y="120" fill="#000000" font-size="5px" font-weight="bold" font-family="'Helvetica Neue', Helvetica, Arial-Unicode, Arial, Sans-serif">from the Noun Project</text></svg>