<svg xmlns="http://www.w3.org/2000/svg" xmlns:xlink="http://www.w3.org/1999/xlink" version="1.1" x="0px" y="0px" viewBox="0 0 700 875" style="enable-background:new 0 0 700 700;" xml:space="preserve"><path d="M639.9,378h-0.5v-18.2c0-2.2-1.7-3.9-3.7-3.9h-11.6V337h0.7c2.1,0,3.7-1.8,3.7-3.9v-12.4c0-2.2-1.7-3.9-3.7-3.9H624  c-0.4-5-1.8-13.1-7-19c-2.5-2.8-5.5-4.7-8.9-5.8c0.4-0.2,0.8-0.5,1.1-0.9c0.7-0.8,1.1-1.9,1-3c-0.5-6.6-3.5-9.8-9.7-10.1  c-3.7,0.1-5.8,1.8-7,3.2c-2.5,3.1-2.1,7.1-2.1,7.5c0.2,1.5,1.1,2.7,2.4,3.2c-3.1,1-5.8,2.8-8.1,5.4c-5.1,5.8-6.4,14.2-6.7,19.4h-1.5  c-2.1,0-3.7,1.8-3.7,3.9V333c0,2.2,1.7,3.9,3.7,3.9h1.1v18.9h-12.4c-2.1,0-3.7,1.8-3.7,3.9v31.5H554c-0.3-3.8-1.5-9.4-5.2-13.6  c-1.5-1.7-3.2-2.9-5.1-3.8c0.4-0.7,0.6-1.5,0.6-2.4c-0.4-5.2-3-8-8-8.2c-3,0.1-4.8,1.5-5.7,2.7c-2,2.5-1.8,5.6-1.7,6.2  c0.1,0.7,0.3,1.3,0.7,1.8c-1.7,0.8-3.2,1.9-4.4,3.4c-3.7,4.2-4.7,10-5,13.9h-63.7v-13.4c0-0.8-0.2-1.6-0.7-2.2v-22.9h4  c2.1,0,3.7-1.8,3.7-3.9v-12.4c0-2.2-1.7-3.9-3.7-3.9h-3.4c-0.5-4.7-2-11.8-6.5-16.9c-2-2.2-4.3-3.8-7-4.8c0.1-0.1,0.2-0.2,0.3-0.3  c0.7-0.8,1.1-1.9,1-3c-0.4-6-3.3-9-9-9.3c-3.4,0.1-5.4,1.7-6.5,3c-2.3,2.8-2,6.3-1.9,7c0.1,1.1,0.7,2.1,1.5,2.7  c-1.8,0.7-3.5,1.8-4.9,3.1c-0.6-0.3-1.3-0.9-1.9-2.1c-2.8-4.9-3-13.8-2.5-18.2h9.6c2.1,0,3.7-1.8,3.7-3.9V272c0-2.2-1.7-3.9-3.7-3.9  h-11.9v-17.7c0-1.5-0.8-2.9-2.1-3.5c-1.1-31.1-22.5-56.8-50.5-62.6v-17c0-0.5-0.1-0.9-0.2-1.3h0.5c0-7.7-5.8-14-13-14s-13,6.3-13,14  h0.2c-0.1,0.4-0.2,0.8-0.2,1.3v17.3c-27,6.5-47.5,31.5-48.8,61.8h-0.1c-2.1,0-3.7,1.8-3.7,3.9V268H277c-2.1,0-3.7,1.8-3.7,3.9v17.8  c0,2.2,1.7,3.9,3.7,3.9h7.6c-0.2,13-4.8,18.2-7.5,20.2c-1.5-1.3-3.2-2.3-5-3c0.1-0.1,0.2-0.2,0.3-0.3c0.7-0.8,1.1-1.9,1-3  c-0.4-6-3.3-9-9-9.3c-3.4,0.1-5.4,1.7-6.5,3c-2.3,2.8-2,6.3-1.9,7c0.1,1.1,0.7,2.1,1.5,2.7c-2.4,1-4.5,2.5-6.3,4.5  c-4.5,5.2-5.7,12.5-6,17.2h-3.5c-2.1,0-3.7,1.8-3.7,3.9v12.4c0,2.2,1.7,3.9,3.7,3.9h3.5v23.3c-0.3,0.5-0.4,1.1-0.4,1.8v12.8h-65.1  c-0.3-3.9-1.3-9.7-5-13.9c-1.3-1.4-2.8-2.6-4.4-3.4c0.4-0.5,0.6-1.1,0.7-1.8c0.1-0.6,0.3-3.7-1.7-6.2c-0.9-1.2-2.7-2.6-6.1-2.7  c-4.7,0.3-7.3,3-7.7,8.2c-0.1,0.9,0.1,1.7,0.6,2.4c-1.9,0.9-3.7,2.1-5.1,3.8c-3.7,4.2-4.9,9.9-5.2,13.6h-8.5v-31.6  c0-2.2-1.7-3.9-3.7-3.9h-12.4V337h1.2c2.1,0,3.7-1.8,3.7-3.9v-12.4c0-2.2-1.7-3.9-3.7-3.9h-1.7c-0.2-5.1-1.4-13.9-6.7-20  c-2.2-2.6-4.9-4.4-8.1-5.4c1.3-0.5,2.2-1.7,2.4-3.2c0.1-0.4,0.4-4.4-2.1-7.5c-1.1-1.4-3.3-3.1-7.3-3.2c-5.9,0.3-8.9,3.5-9.3,10.1  c-0.1,1.1,0.3,2.2,1,3c0.3,0.4,0.7,0.7,1.1,0.9c-3.5,1.1-6.5,3-8.9,5.8c-5.4,6.1-6.7,14.7-7,19.6h-0.6c-2.1,0-3.7,1.8-3.7,3.9V333  c0,2.2,1.7,3.9,3.7,3.9h0.5v18.3H64.3c-2.1,0-3.7,1.8-3.7,3.9v18.2h-0.5v7.9h0.5v152.1c0,2.2,1.7,3.9,3.7,3.9h69.4  c2.1,0,3.7-1.8,3.7-3.9v-5.4h109.9v12.3c0,2.2,1.7,3.9,3.7,3.9h198.4c2.1,0,3.7-1.8,3.7-3.9v-11.6h109.5v5.4c0,2.2,1.7,3.9,3.7,3.9  h69.4c2.1,0,3.7-1.8,3.7-3.9V385.9h0.5L639.9,378L639.9,378z M632,363.7V378h-7.9v-14.2L632,363.7L632,363.7z M322.4,511.8v-71.1  c0-13.8,10.6-25,23.5-25h7.6c13,0,23.5,11.2,23.5,25v71.1H322.4z M353.5,407.8H346c-17.1,0-31,14.7-31,32.9v75h-15.4V402.2H400  v113.4h-15.5v-75C384.5,422.6,370.6,407.8,353.5,407.8z M252.8,373.8V353h24.8v20.7L252.8,373.8L252.8,373.8z M292.2,381.9v12.4h-38  c-0.1-1.3-0.8-2.4-1.8-3v-9.4H292.2z M321.2,293.6v45.6h-6.7v-45.6H321.2z M379.6,339.2v-45.6h7v45.6H379.6z M372.2,339.2h-7.9  v-45.6h7.9V339.2z M356.8,339.2h-10.6v-45.6h10.6V339.2z M338.8,339.2h-10.2v-45.6h10.2V339.2z M309.6,347.1  c0.4,0.1,0.8,0.2,1.2,0.2h79.5c0.4,0,0.8-0.1,1.2-0.2h8.4V374H299.6v-26.9H309.6z M400,381.9v12.4H299.6v-12.4H400z M423.6,373.8  V353h24.8v20.7L423.6,373.8L423.6,373.8z M418.8,381.9H449v9.5c-1.5,0.2-2.7,1.4-3.1,2.9h-38.5v-12.4h1.4H418.8z M616.7,370.8  c-3.3-2.7-8-5.1-14.6-5.5c-7-0.5-12.3,2-16,5.1v-6.7h30.6V370.8z M613.2,378h-23.9c2.6-2.7,6.6-5.2,12.4-4.8  C607.2,373.6,610.9,375.8,613.2,378z M578.7,385.9v16.8h-8.5v-7.3c0-0.4-0.1-0.7-0.2-1.1V386h8.7V385.9z M570.2,410.5h8.5v44.8h-8.5  V410.5z M562.6,455.4H453.2v-44.8h109.4L562.6,455.4L562.6,455.4z M246.8,454.7H137.4v-44.8h109.4L246.8,454.7L246.8,454.7z   M129.8,454.7h-8.5v-44.8h8.5V454.7z M130,393.6c-0.1,0.3-0.2,0.7-0.2,1.1v7.3h-8.5v-16.8h8.7V393.6z M113.9,369.9  c-3.7-3.1-9-5.7-16-5.2c-6.6,0.4-11.3,2.8-14.6,5.5v-7.1h30.6V369.9z M110.7,377.4H86.8c2.3-2.2,6-4.4,11.6-4.8  C104.1,372.2,108.1,374.7,110.7,377.4z M113.9,385.2V402H83.3v-16.8H113.9z M113.9,409.9v44.8H83.3v-44.8H113.9z M83.3,462.6h30.6  v40.8H83.3V462.6z M75.9,454.7H68v-44.8h7.9V454.7z M68,462.6h7.9v44.8c0,2.2,1.7,3.9,3.7,3.9h38c2.1,0,3.7-1.8,3.7-3.9v-44.8h8.5  v51.2H68V462.6z M137.4,462.6h109.4v44.3H137.4V462.6z M254.2,402.2h37.9v113.4h-37.9L254.2,402.2L254.2,402.2z M407.4,402.2h38.4  v113.4h-38.4V402.2z M453.2,463.2h109.4v44.3H453.2V463.2z M570.2,463.2h8.5V508c0,2.2,1.7,3.9,3.7,3.9h38c2.1,0,3.7-1.8,3.7-3.9  v-44.8h7.9v51.2h-61.8L570.2,463.2L570.2,463.2z M586.1,463.2h30.6V504h-30.6V463.2z M624.1,455.4v-44.8h7.9v44.8H624.1z   M616.7,455.4h-30.6v-44.8h30.6V455.4z M586.1,402.6v-16.8h30.6v16.8H586.1z M581.3,329.1v-4.5h39.8v4.5H581.3z M591.3,302.6  c2.3-2.6,5.4-3.9,9.5-3.9c4.7,0,8.2,1.4,10.8,4.4c3.5,3.9,4.6,9.7,5,13.6h-29.9C586.9,312.7,587.9,306.6,591.3,302.6z M586.1,337  h30.6v18.9h-30.6V337z M578.7,363.7V378H570v-14.2L578.7,363.7L578.7,363.7z M562.6,402.6H453.2v-3.4h109.4L562.6,402.6L562.6,402.6  z M530.7,382.8c1.4-1.6,3.4-2.4,6-2.4c3,0,5.2,0.9,6.9,2.7c2.1,2.3,2.9,5.7,3.2,8.2h-19C527.9,388.7,528.6,385.1,530.7,382.8z   M456.1,344.9h-39.8v-4.5h39.8V344.9z M435.5,317.4c3.9,0,6.8,1.2,9,3.7c2.9,3.2,4,7.9,4.5,11.5h-25.5c0.2-3.5,1.1-8.5,4-11.8  C429.5,318.5,432.1,317.4,435.5,317.4z M414.7,315.2c1.2,2.4,2.7,4,4.2,5.1c-2,4.3-2.7,9-2.9,12.3h-3.4c-2.1,0-3.7,1.8-3.7,3.9v12.4  c0,2.2,1.7,3.9,3.7,3.9h3.5V374h-7.3h-1.4v-30.8c0-2.2-1.7-3.9-3.7-3.9H394v-45.6h17.5C411,299.8,411.6,309,414.7,315.2z   M351.4,159.7c2.2,0,4.1,1.4,5,3.5h-10.1C347.3,161.2,349.2,159.7,351.4,159.7z M345.8,171.1h10.9v12c-1.5-0.1-3.1-0.2-4.6-0.2  c-2.1,0-4.2,0.1-6.3,0.3V171.1z M352.1,190.8c29.5,0,53.6,24.6,55.1,55.5H297C298.5,215.4,322.6,190.8,352.1,190.8z M293.2,254.2  h116v13.7h-116V254.2z M280.7,275.8h144.1v10H280.7V275.8z M292.1,293.6h15v45.6h-11.2c-1.4,0-2.5,0.8-3.2,1.9v-4.7  c0-2.2-1.7-3.9-3.7-3.9h-3.3c-0.4-3.6-1.3-8.4-3.7-12.8C286.3,316.4,291.9,309,292.1,293.6z M245.5,344.9v-4.5h39.8v4.5H245.5z   M256.7,320.7c1.9-2.2,4.6-3.3,8-3.3c3.9,0,6.8,1.2,9,3.7c2.9,3.2,4,7.9,4.5,11.5h-25.5C253,329.1,253.8,324,256.7,320.7z   M289,352.8c1.4,0,2.5-0.8,3.2-1.9V374H285v-21.2H289z M156.5,382.5c1.6-1.8,3.9-2.7,6.9-2.7c2.6,0,4.5,0.8,5.9,2.4  c2,2.2,2.7,5.8,3,8.6h-19C153.6,388.2,154.4,384.8,156.5,382.5z M246.8,398.6v3.4H137.4v-3.4H246.8z M130,363.1v14.2h-8.7v-14.2H130  z M79.1,329.1v-4.5h39.8v4.5H79.1z M88.4,302.5c2.6-2.9,6.2-4.4,10.8-4.4c4.1,0,7.2,1.3,9.5,3.9c3.6,4.1,4.5,10.7,4.7,14.7h-30  C83.7,312.9,84.7,306.6,88.4,302.5z M83.3,337h30.6v18.3H83.3V337z M68,363.1h7.9v14.2H68V363.1z M75.9,385.2V402H68v-16.8H75.9z   M68,533.4v-11.7h61.8v6.3c0,0.4,0.1,0.7,0.2,1.1v4.3L68,533.4L68,533.4z M137.4,524.1v-9.3h109.4v9.3H137.4z M445.7,540.3h-191  v-16.7h191V540.3z M453.2,524.7v-9.3h109.4v9.3H453.2z M570,534v-4.3c0.1-0.3,0.2-0.7,0.2-1.1v-6.3H632V534H570z M632,402.6h-7.9  v-16.8h7.9V402.6z M185.1,448.5h13.8c2.1,0,3.7-1.8,3.7-3.9v-22.3c0-2.2-1.7-3.9-3.7-3.9h-13.8c-2.1,0-3.7,1.8-3.7,3.9v22.3  C181.4,446.8,183,448.5,185.1,448.5z M188.8,426.3h6.4v14.4h-6.4V426.3z M198.9,469.4h-13.8c-2.1,0-3.7,1.8-3.7,3.9v22.3  c0,2.2,1.7,3.9,3.7,3.9h13.8c2.1,0,3.7-1.8,3.7-3.9v-22.3C202.6,471.1,201,469.4,198.9,469.4z M195.2,491.7h-6.4v-14.4h6.4V491.7z   M92,448.5h13.8c2.1,0,3.7-1.8,3.7-3.9v-22.3c0-2.2-1.7-3.9-3.7-3.9H92c-2.1,0-3.7,1.8-3.7,3.9v22.3C88.3,446.8,90,448.5,92,448.5z   M95.7,426.3h6.4v14.4h-6.4V426.3z M105.9,469.4H92c-2.1,0-3.7,1.8-3.7,3.9v22.3c0,2.2,1.7,3.9,3.7,3.9h13.8c2.1,0,3.7-1.8,3.7-3.9  v-22.3C109.6,471.1,107.9,469.4,105.9,469.4z M102.2,491.7h-6.4v-14.4h6.4V491.7z M513.8,469.4H500c-2.1,0-3.7,1.8-3.7,3.9v22.3  c0,2.2,1.7,3.9,3.7,3.9h13.8c2.1,0,3.7-1.8,3.7-3.9v-22.3C517.5,471.1,515.9,469.4,513.8,469.4z M510.1,491.7h-6.4v-14.4h6.4V491.7z   M217.6,448.5h13.8c2.1,0,3.7-1.8,3.7-3.9v-22.3c0-2.2-1.7-3.9-3.7-3.9h-13.8c-2.1,0-3.7,1.8-3.7,3.9v22.3  C213.9,446.8,215.6,448.5,217.6,448.5z M221.4,426.3h6.4v14.4h-6.4V426.3z M152.1,448.5H166c2.1,0,3.7-1.8,3.7-3.9v-22.3  c0-2.2-1.7-3.9-3.7-3.9h-13.8c-2.1,0-3.7,1.8-3.7,3.9v22.3C148.4,446.8,150.1,448.5,152.1,448.5z M155.9,426.3h6.4v14.4h-6.4V426.3z   M499.5,448.5h13.8c2.1,0,3.7-1.8,3.7-3.9v-22.3c0-2.2-1.7-3.9-3.7-3.9h-13.8c-2.1,0-3.7,1.8-3.7,3.9v22.3  C495.8,446.8,497.5,448.5,499.5,448.5z M503.2,426.3h6.4v14.4h-6.4V426.3z M608.6,469.4h-13.8c-2.1,0-3.7,1.8-3.7,3.9v22.3  c0,2.2,1.7,3.9,3.7,3.9h13.8c2.1,0,3.7-1.8,3.7-3.9v-22.3C612.3,471.1,610.7,469.4,608.6,469.4z M604.9,491.7h-6.4v-14.4h6.4V491.7z   M594.3,448.5h13.8c2.1,0,3.7-1.8,3.7-3.9v-22.3c0-2.2-1.7-3.9-3.7-3.9h-13.8c-2.1,0-3.7,1.8-3.7,3.9v22.3  C590.6,446.8,592.3,448.5,594.3,448.5z M598.1,426.3h6.4v14.4h-6.4V426.3z M532.1,448.5h13.8c2.1,0,3.7-1.8,3.7-3.9v-22.3  c0-2.2-1.7-3.9-3.7-3.9h-13.8c-2.1,0-3.7,1.8-3.7,3.9v22.3C528.4,446.8,530,448.5,532.1,448.5z M535.8,426.3h6.4v14.4h-6.4V426.3z   M466.6,448.5h13.8c2.1,0,3.7-1.8,3.7-3.9v-22.3c0-2.2-1.7-3.9-3.7-3.9h-13.8c-2.1,0-3.7,1.8-3.7,3.9v22.3  C462.9,446.8,464.5,448.5,466.6,448.5z M470.3,426.3h6.4v14.4h-6.4V426.3z M423.3,408.9c-6.4,0-11.6,5.5-11.6,12.4v21.6  c0,1.9,1.3,3.5,3,3.9c0.4,0.1,0.8,0.1,1.2,0c1.4-0.1,8.8,0,15.3,0l0,0c1,0,1.9-0.4,2.6-1.1s1.1-1.7,1.1-2.8v-21.6  C434.9,414.4,429.7,408.9,423.3,408.9z M423.3,416.8c2.3,0,4.2,2,4.2,4.5v7.6h-8.4v-7.6C419.1,418.8,421,416.8,423.3,416.8z   M422.2,438.8c-1.2,0-2.2,0-3.1,0v-2.1h8.4v2.1C425.4,438.8,423.7,438.8,422.2,438.8z M423.3,461.7c-6.4,0-11.6,5.5-11.6,12.4v21.6  c0,1.9,1.3,3.5,3,3.9c0.4,0.1,0.8,0.1,1.2,0c1.4-0.1,8.8,0,15.3,0l0,0c1,0,1.9-0.4,2.6-1.1s1.1-1.7,1.1-2.8v-21.6  C434.9,467.3,429.7,461.7,423.3,461.7z M423.3,469.6c2.3,0,4.2,2,4.2,4.5v7.6h-8.4v-7.6C419.1,471.6,421,469.6,423.3,469.6z   M422.2,491.7c-1.2,0-2.2,0-3.1,0v-2.1h8.4v2.1C425.4,491.7,423.7,491.7,422.2,491.7z M277.2,408.9c-6.4,0-11.6,5.5-11.6,12.4v21.6  c0,1.9,1.3,3.5,3,3.9c0.4,0.1,0.8,0.1,1.2,0c1.4-0.1,8.8,0,15.3,0l0,0c1,0,1.9-0.4,2.6-1.1s1.1-1.7,1.1-2.8v-21.6  C288.9,414.4,283.6,408.9,277.2,408.9z M277.2,416.8c2.3,0,4.2,2,4.2,4.5v7.6H273v-7.6C273,418.8,274.9,416.8,277.2,416.8z   M276.1,438.8c-1.2,0-2.2,0-3.1,0v-2.1h8.4v2.1C279.4,438.8,277.6,438.8,276.1,438.8z M277.2,461.7c-6.4,0-11.6,5.5-11.6,12.4v21.6  c0,1.9,1.3,3.5,3,3.9c0.4,0.1,0.8,0.1,1.2,0c1.4-0.1,8.8,0,15.3,0l0,0c1,0,1.9-0.4,2.6-1.1s1.1-1.7,1.1-2.8v-21.6  C288.9,467.3,283.6,461.7,277.2,461.7z M277.2,469.6c2.3,0,4.2,2,4.2,4.5v7.6H273v-7.6C273,471.6,274.9,469.6,277.2,469.6z   M276.1,491.7c-1.2,0-2.2,0-3.1,0v-2.1h8.4v2.1C279.4,491.7,277.6,491.7,276.1,491.7z"/><text x="0" y="715" fill="#000000" font-size="5px" font-weight="bold" font-family="'Helvetica Neue', Helvetica, Arial-Unicode, Arial, Sans-serif">Created by Niyosha Gandhi</text><text x="0" y="720" fill="#000000" font-size="5px" font-weight="bold" font-family="'Helvetica Neue', Helvetica, Arial-Unicode, Arial, Sans-serif">from the Noun Project</text></svg>