<?xml version="1.0" encoding="UTF-8"?>
<svg version="1.1" xmlns="http://www.w3.org/2000/svg" width="1024" height="1024">
<path d="M0 0 C337.92 0 675.84 0 1024 0 C1024 337.92 1024 675.84 1024 1024 C686.08 1024 348.16 1024 0 1024 C0 686.08 0 348.16 0 0 Z " fill="#FAFAFB" transform="translate(0,0)"/>
<path d="M0 0 C1.08093933 0.00149048 2.16187866 0.00298096 3.27557373 0.0045166 C19.39806101 0.0444732 35.06912765 0.67111184 51 3.3125 C52.90212621 3.59521754 54.80447332 3.87645254 56.70703125 4.15625 C87.02548623 8.8196351 116.328263 18.13013865 144 31.3125 C144.67289063 31.63041504 145.34578125 31.94833008 146.0390625 32.27587891 C169.49002953 43.42980169 190.95310671 57.8421616 211 74.3125 C211.5470459 74.76189941 212.0940918 75.21129883 212.65771484 75.67431641 C227.02025312 87.5371923 240.96349359 100.05942068 253 114.3125 C253.73605469 115.15941406 254.47210937 116.00632812 255.23046875 116.87890625 C262.42110576 125.28131993 268.78136927 134.17390016 275 143.3125 C275.53028809 144.08625977 276.06057617 144.86001953 276.60693359 145.65722656 C289.15704037 164.06908246 299.5649844 183.68801082 308 204.3125 C308.3619043 205.19421875 308.72380859 206.0759375 309.09667969 206.984375 C320.95937545 236.27198533 327.48865072 266.98908061 331 298.3125 C331.14574463 299.5032312 331.14574463 299.5032312 331.29443359 300.71801758 C332.35073875 310.4001827 332.24194921 320.14734003 332.25 329.875 C332.25133942 330.82936951 332.25267883 331.78373901 332.25405884 332.76702881 C332.24938094 348.15989572 331.43079057 363.09007624 329 378.3125 C328.79185049 379.76546524 328.58473352 381.21857897 328.37890625 382.671875 C320.07301354 437.75549653 294.96985029 493.76751578 259 536.3125 C257.49804609 538.16508427 255.99806299 540.01926799 254.5 541.875 C250.83256166 546.36026432 247.02710112 550.69041957 243.12109375 554.96875 C241.18168497 557.11174312 239.30670701 559.29594638 237.4375 561.5 C234.60224047 564.74954403 231.57041246 567.56061253 228.28125 570.34375 C226.07513646 572.24765621 223.94594185 574.21996226 221.82128906 576.21386719 C215.70883095 581.93069695 209.30903343 587.07828132 202.61035156 592.08740234 C201.04860032 593.27552662 199.51965299 594.50639025 197.9921875 595.73828125 C152.43463493 632.26588415 90.65423649 653.23751091 33 658.3125 C31.83339844 658.42335938 30.66679688 658.53421875 29.46484375 658.6484375 C-29.10345178 663.28378923 -86.70104267 651.87502422 -139.8125 627.1875 C-140.4247644 626.90389618 -141.03702881 626.62029236 -141.66784668 626.32809448 C-150.7299952 622.10711839 -159.40185036 617.39236099 -168 612.3125 C-169.29852905 611.54583008 -169.29852905 611.54583008 -170.62329102 610.76367188 C-181.59168593 604.19294464 -191.61037716 596.92573217 -201.36669922 588.67382812 C-203.421642 586.96106864 -205.54533621 585.35176313 -207.6875 583.75 C-212.68119824 579.90942674 -217.22018151 575.58080353 -221.8125 571.27734375 C-224.46960571 568.78985732 -227.19144982 566.38924432 -229.9375 564 C-240.30129466 554.68101065 -249.53069163 544.21806565 -257.76708984 532.99121094 C-259.06963679 531.21768364 -260.38750715 529.45623824 -261.70703125 527.6953125 C-264.51460449 523.93168668 -267.27215985 520.13426074 -270 516.3125 C-270.41749512 515.72807129 -270.83499023 515.14364258 -271.26513672 514.54150391 C-308.88034952 461.34902726 -328.19094823 396.67258406 -328.18530273 331.87353516 C-328.18748562 329.08089862 -328.20570418 326.28866073 -328.22460938 323.49609375 C-328.2616041 311.96233485 -327.59955253 300.73395358 -326 289.3125 C-325.82831299 288.06581543 -325.65662598 286.81913086 -325.47973633 285.53466797 C-319.98127704 247.73629159 -308.80691996 212.60196495 -292 178.3125 C-291.62053223 177.52375488 -291.24106445 176.73500977 -290.85009766 175.92236328 C-281.9267014 157.48178498 -269.97394539 140.13596418 -257 124.3125 C-256.57444824 123.79220215 -256.14889648 123.2719043 -255.71044922 122.73583984 C-242.74691235 106.95558115 -228.76000739 91.35250612 -213 78.3125 C-212.22293701 77.65677002 -212.22293701 77.65677002 -211.43017578 76.98779297 C-194.43021642 62.66093066 -176.26132579 50.38543608 -157 39.3125 C-156.38479492 38.94995117 -155.76958984 38.58740234 -155.13574219 38.21386719 C-121.12700613 18.22132458 -80.85704067 7.2032066 -42 2.3125 C-40.75686035 2.14258545 -39.5137207 1.9726709 -38.23291016 1.79760742 C-25.48923986 0.14364386 -12.83736272 -0.04378582 0 0 Z " fill="#1E8BC2" transform="translate(510,182.6875)"/>
<path d="M0 0 C33.33 0 66.66 0 101 0 C101 50.49 101 100.98 101 153 C117.17 153 133.34 153 150 153 C150 136.17 150 119.34 150 102 C167.49 102 184.98 102 203 102 C203 154.14 203 206.28 203 260 C210.92 260 218.84 260 227 260 C227 240.53 227 221.06 227 201 C252.41 201 277.82 201 304 201 C304.38395756 229.49451588 304.69701718 257.98693341 304.88080692 286.48338032 C304.9684173 299.71520492 305.08782298 312.94530675 305.2824707 326.17602539 C305.4520745 337.70995415 305.5616252 349.24263532 305.59950441 360.77777642 C305.62164459 366.88471115 305.67354421 372.9880774 305.79741096 379.09386635 C305.91316145 384.84639954 305.94833605 390.59391079 305.92283058 396.34749794 C305.92749281 398.45399327 305.96112555 400.56066311 306.02649307 402.66614914 C306.4824624 418.11587496 306.4824624 418.11587496 302.37087703 422.89271522 C298.37082113 426.28982177 293.95663715 428.67729099 289.22905242 430.90712011 C285.60326263 432.68480497 282.22956773 434.85608074 278.8125 437 C203.16033005 481.53760589 112.5512388 492.75755064 27.73486328 471.58837891 C7.50013515 466.24082955 -11.85927819 458.68492814 -30.8125 449.875 C-31.4247644 449.59139618 -32.03702881 449.30779236 -32.66784668 449.01559448 C-41.7299952 444.79461839 -50.40185036 440.07986099 -59 435 C-59.86568604 434.48888672 -60.73137207 433.97777344 -61.62329102 433.45117188 C-72.59168593 426.88044464 -82.61037716 419.61323217 -92.36669922 411.36132812 C-94.421642 409.64856864 -96.54533621 408.03926313 -98.6875 406.4375 C-104.14794664 402.24036893 -109.15761949 397.48595553 -114.10306644 392.69930267 C-115.99584047 390.93596106 -115.99584047 390.93596106 -118.26547146 389.41222382 C-121.90763265 386.70348278 -124.55815498 384.56770678 -125.81686592 380.10168457 C-126.10705544 376.57380879 -126.11385399 373.14620999 -126.02172852 369.60742188 C-126.01918597 368.26635918 -126.02062245 366.92528397 -126.02571106 365.58422852 C-126.02828133 361.96386933 -125.9755793 358.3462233 -125.91254544 354.72649193 C-125.85607403 350.93633362 -125.85098068 347.14610492 -125.84031677 343.35559082 C-125.8124039 336.18706895 -125.73863415 329.01979042 -125.64817137 321.85181475 C-125.54738333 313.68751099 -125.49804313 305.52314613 -125.45291245 297.3583746 C-125.35897574 280.57140825 -125.19400782 263.78615341 -125 247 C-112.79 247.33 -100.58 247.66 -88 248 C-88 200.15 -88 152.3 -88 103 C-58.96 103 -29.92 103 0 103 C0 69.01 0 35.02 0 0 Z " fill="#033550" transform="translate(401,360)"/>
<path d="M0 0 C3.49150611 2.85294157 6.78466686 5.84000822 10 9 C10.61488281 9.60199219 11.22976563 10.20398438 11.86328125 10.82421875 C20.21443117 19.67451787 26.71824785 31.3234896 30 43 C30.22300781 43.74765625 30.44601562 44.4953125 30.67578125 45.265625 C37.5133847 72.61603881 24.59929121 97.19592726 11 120 C9.88921834 121.75147487 8.77161242 123.49863417 7.6484375 125.2421875 C3.74435813 131.32690484 0.1790079 137.58123872 -3.375 143.875 C-4.77883025 146.34903598 -6.18573919 148.82130992 -7.59375 151.29296875 C-8.13296585 152.23971214 -8.13296585 152.23971214 -8.68307495 153.20558167 C-14.7390857 163.82005108 -20.95930013 174.33959706 -27.15966797 184.87011719 C-28.75893922 187.59002398 -30.3523385 190.31318721 -31.94140625 193.0390625 C-37.4482729 202.47493885 -43.15946 211.76697613 -49 221 C-49.66 220.67 -50.32 220.34 -51 220 C-51.27714844 219.14535156 -51.55429687 218.29070312 -51.83984375 217.41015625 C-53.2314275 213.3197434 -55.25696899 210.06791372 -57.5625 206.4375 C-62.58756789 198.36600602 -67.44998143 190.2064529 -72.25 182 C-72.61079651 181.38361664 -72.97159302 180.76723328 -73.34332275 180.13217163 C-79.21276404 170.10090222 -85.02963281 160.03979303 -90.82714844 149.96679688 C-94.18947591 144.127249 -97.57246549 138.30149125 -101 132.5 C-102.19284776 130.47360823 -103.38473166 128.44665327 -104.57617188 126.41943359 C-105.64328725 124.60614255 -106.71267558 122.79418882 -107.78320312 120.98291016 C-123.30110241 94.6809252 -123.30110241 94.6809252 -127 84 C-127.33257813 83.11183594 -127.66515625 82.22367187 -128.0078125 81.30859375 C-133.86139811 62.77223932 -130.11449067 43.65829185 -122.125 26.5625 C-111.73943753 7.00698797 -93.84907089 -6.36900152 -73 -13 C-48.45962972 -19.92992822 -20.47720856 -15.53224798 0 0 Z " fill="#F22D26" transform="translate(703,284)"/>
<path d="M0 0 C0.78753662 0.00829834 1.57507324 0.01659668 2.38647461 0.02514648 C12.97208816 0.33038583 21.70240265 3.79705158 29.1875 11.4375 C35.56397263 19.63759419 39.88752783 28.2866492 39.54296875 38.8203125 C38.56343035 46.03229854 35.6224868 52.69810532 31.1875 58.4375 C30.75695312 59.01113281 30.32640625 59.58476562 29.8828125 60.17578125 C23.04131278 68.81086332 14.2921969 72.48537228 3.4609375 73.7578125 C-6.28152462 74.1789564 -15.53334487 71.30551431 -23.0703125 65.06640625 C-31.1550852 57.50732505 -35.77834621 49.47881616 -36.20678711 38.29418945 C-36.41250873 27.07480623 -34.2441593 18.8284536 -26.3125 10.4375 C-18.46267393 3.36063273 -10.50468007 -0.14365181 0 0 Z " fill="#1E8CC3" transform="translate(652.8125,310.5625)"/>
<path d="M0 0 C7.59 0 15.18 0 23 0 C23 9.24 23 18.48 23 28 C15.41 28 7.82 28 0 28 C0 18.76 0 9.52 0 0 Z " fill="#1D8CC5" transform="translate(459,640)"/>
<path d="M0 0 C7.59 0 15.18 0 23 0 C23 8.91 23 17.82 23 27 C15.41 27 7.82 27 0 27 C0 18.09 0 9.18 0 0 Z " fill="#1D8DC6" transform="translate(459,585)"/>
<path d="M0 0 C6.93 0 13.86 0 21 0 C21 9.57 21 19.14 21 29 C14.07 29 7.14 29 0 29 C0 19.43 0 9.86 0 0 Z " fill="#1C8CC5" transform="translate(663,653)"/>
<path d="M0 0 C6.93 0 13.86 0 21 0 C21 9.57 21 19.14 21 29 C14.07 29 7.14 29 0 29 C0 19.43 0 9.86 0 0 Z " fill="#1C8CC5" transform="translate(371,561)"/>
<path d="M0 0 C6.93 0 13.86 0 21 0 C21 9.57 21 19.14 21 29 C14.07 29 7.14 29 0 29 C0 19.43 0 9.86 0 0 Z " fill="#1D8DC6" transform="translate(427,457)"/>
<path d="M0 0 C6.93 0 13.86 0 21 0 C21 9.24 21 18.48 21 28 C14.07 28 7.14 28 0 28 C0 18.76 0 9.52 0 0 Z " fill="#1C8CC6" transform="translate(371,618)"/>
<path d="M0 0 C6.93 0 13.86 0 21 0 C21 9.24 21 18.48 21 28 C14.07 28 7.14 28 0 28 C0 18.76 0 9.52 0 0 Z " fill="#1D8DC6" transform="translate(663,598)"/>
<path d="M0 0 C6.93 0 13.86 0 21 0 C21 9.24 21 18.48 21 28 C14.07 28 7.14 28 0 28 C0 18.76 0 9.52 0 0 Z " fill="#1C8DC7" transform="translate(371,506)"/>
<path d="M0 0 C6.93 0 13.86 0 21 0 C21 9.24 21 18.48 21 28 C14.07 28 7.14 28 0 28 C0 18.76 0 9.52 0 0 Z " fill="#1D8EC7" transform="translate(427,402)"/>
<path d="M0 0 C6.93 0 13.86 0 21 0 C21 8.91 21 17.82 21 27 C14.07 27 7.14 27 0 27 C0 18.09 0 9.18 0 0 Z " fill="#1D8CC6" transform="translate(545,601)"/>
<path d="M0 0 C6.93 0 13.86 0 21 0 C21 8.91 21 17.82 21 27 C14.07 27 7.14 27 0 27 C0 18.09 0 9.18 0 0 Z " fill="#1D8CC5" transform="translate(545,547)"/>
<path d="M0 0 C6.6 0 13.2 0 20 0 C20 8.91 20 17.82 20 27 C13.4 27 6.8 27 0 27 C0 18.09 0 9.18 0 0 Z " fill="#1E8EC7" transform="translate(337,561)"/>
<path d="M0 0 C6.6 0 13.2 0 20 0 C20 8.91 20 17.82 20 27 C13.4 27 6.8 27 0 27 C0 18.09 0 9.18 0 0 Z " fill="#1E8EC8" transform="translate(337,506)"/>
<path d="M0 0 C0.33 0 0.66 0 1 0 C1 49.83 1 99.66 1 151 C16.18 151 31.36 151 47 151 C47 135.16 47 119.32 47 103 C47.33 103 47.66 103 48 103 C48 119.5 48 136 48 153 C31.83 153 15.66 153 -1 153 C-1.02255185 133.34658596 -1.040982 113.69318236 -1.05181217 94.03975868 C-1.05697391 84.91484744 -1.06401428 75.78994479 -1.07543945 66.66503906 C-1.08539002 58.71407706 -1.09185432 50.76312128 -1.09408849 42.81215322 C-1.09539496 38.60010914 -1.09847683 34.38808286 -1.10573006 30.17604446 C-1.11249613 26.21496742 -1.11461575 22.2539156 -1.11310768 18.29283333 C-1.11338374 16.83592021 -1.1153854 15.37900629 -1.11920547 13.92209816 C-1.12415179 11.93908924 -1.12239542 9.95606691 -1.12025452 7.97305298 C-1.12117631 6.86137064 -1.1220981 5.7496883 -1.12304783 4.60431862 C-1 2 -1 2 0 0 Z " fill="#1F93CE" transform="translate(503,360)"/>
<path d="M0 0 C4.75800633 4.75800633 5.85075687 11.06488512 6.1875 17.6875 C6.125625 18.450625 6.06375 19.21375 6 20 C5.67 19.34 5.34 18.68 5 18 C3.68 18.33 2.36 18.66 1 19 C1.33 18.01 1.66 17.02 2 16 C1.34 15.67 0.68 15.34 0 15 C0 10.05 0 5.1 0 0 Z " fill="#EF271E" transform="translate(728,318)"/>
<path d="M0 0 C4.56263526 4.10170187 7.19611755 9.82162405 10.25 15.0625 C10.91257812 16.17689453 11.57515625 17.29128906 12.2578125 18.43945312 C12.87914062 19.50228516 13.50046875 20.56511719 14.140625 21.66015625 C14.71329102 22.63605713 15.28595703 23.61195801 15.87597656 24.61743164 C16.2469043 25.4036792 16.61783203 26.18992676 17 27 C16.67 27.66 16.34 28.32 16 29 C4 11.38297872 4 11.38297872 4 8 C3.01 7.67 2.02 7.34 1 7 C0.67 4.69 0.34 2.38 0 0 Z " fill="#1A99D6" transform="translate(617,443)"/>
<path d="M0 0 C0.33 0 0.66 0 1 0 C1.33 9.9 1.66 19.8 2 30 C0.68 29.67 -0.64 29.34 -2 29 C-1.835 27.80375 -1.67 26.6075 -1.5 25.375 C-0.88885789 20.01901842 -0.96582309 14.71572674 -1.0625 9.33203125 C-1.00217084 6.11573275 -0.61246452 3.15323532 0 0 Z " fill="#1999D4" transform="translate(572,332)"/>
<path d="M0 0 C0.66 0.33 1.32 0.66 2 1 C-3 6 -8 11 -13 16 C-12.25 12.625 -12.25 12.625 -11 9 C-8.9375 7.8125 -8.9375 7.8125 -7 7 C-6.814375 6.0409375 -6.814375 6.0409375 -6.625 5.0625 C-6 3 -6 3 -3.0625 1.1875 C-2.051875 0.795625 -1.04125 0.40375 0 0 Z " fill="#169CD9" transform="translate(598,287)"/>
<path d="M0 0 C2.97 0.495 2.97 0.495 6 1 C5.9278125 1.59167969 5.855625 2.18335938 5.78125 2.79296875 C5.30089977 6.88261722 4.86689849 10.8738531 5 15 C2.32449708 12.32449708 2.16790611 10.05120106 1.375 6.375 C0.98441406 4.59222656 0.98441406 4.59222656 0.5859375 2.7734375 C0.39257812 1.85820312 0.19921875 0.94296875 0 0 Z " fill="#1C96CF" transform="translate(730,319)"/>
<path d="M0 0 C1.66568193 4.07279545 0.2260045 6.96331546 -1.25 10.9375 C-1.68828125 12.14277344 -2.1265625 13.34804688 -2.578125 14.58984375 C-3.8368506 17.60871037 -5.23066462 20.25753016 -7 23 C-7.33 22.34 -7.66 21.68 -8 21 C-7.328125 19.15234375 -7.328125 19.15234375 -6.25 16.9375 C-4.12494659 12.38591501 -2.50855306 7.78509188 -1 3 C-0.67 2.01 -0.34 1.02 0 0 Z " fill="#F41C11" transform="translate(732,360)"/>
<path d="M0 0 C2 3 2 3 1.75 5.125 C1 7 1 7 -1 8 C-1.99 9.485 -1.99 9.485 -3 11 C-3.66 11 -4.32 11 -5 11 C-5.33 11.66 -5.66 12.32 -6 13 C-5.51675181 7.84535266 -2.81389239 4.18449681 0 0 Z " fill="#1899D5" transform="translate(703,421)"/>
<path d="M0 0 C0.33 0.66 0.66 1.32 1 2 C0.0625 4.125 0.0625 4.125 -1 6 C-0.34 6.33 0.32 6.66 1 7 C1 7.66 1 8.32 1 9 C0.01 9.33 -0.98 9.66 -2 10 C-2.33 9.67 -2.66 9.34 -3 9 C-4.32 10.32 -5.64 11.64 -7 13 C-5.35821735 8.22390502 -2.73453298 4.20617096 0 0 Z " fill="#169AD7" transform="translate(671,476)"/>
<path d="M0 0 C0.98464547 2.6078186 1.1236295 3.68962214 0.07421875 6.32421875 C-0.38339844 7.10410156 -0.84101562 7.88398438 -1.3125 8.6875 C-1.98732422 9.86892578 -1.98732422 9.86892578 -2.67578125 11.07421875 C-4 13 -4 13 -6 14 C-5.67 11.03 -5.34 8.06 -5 5 C-3.68 5 -2.36 5 -1 5 C-0.67 3.35 -0.34 1.7 0 0 Z " fill="#1799D4" transform="translate(689,355)"/>
<path d="M0 0 C0.99 0.495 0.99 0.495 2 1 C2 1.66 2 2.32 2 3 C2.99 2.67 3.98 2.34 5 2 C5 2.66 5 3.32 5 4 C5.66 4 6.32 4 7 4 C6.67 4.99 6.34 5.98 6 7 C6.33 7.33 6.66 7.66 7 8 C6.5625 10.0625 6.5625 10.0625 6 12 C4 11 4 11 3 8.25 C2.67 7.1775 2.34 6.105 2 5 C1.34588315 3.32836805 0.68346682 1.65984798 0 0 Z " fill="#EF2317" transform="translate(648,493)"/>
<path d="M0 0 C0.33 0 0.66 0 1 0 C1.33 2.31 1.66 4.62 2 7 C3.65 6.67 5.3 6.34 7 6 C4.42215154 8.64752004 2.08351902 10.94432065 -1 13 C-0.67 8.71 -0.34 4.42 0 0 Z " fill="#1882BE" transform="translate(706,767)"/>
<path d="M0 0 C0.66 0.33 1.32 0.66 2 1 C-1 5 -4 9 -7 13 C-7.33 12.01 -7.66 11.02 -8 10 C-6.85546875 8.02734375 -6.85546875 8.02734375 -5.1875 5.9375 C-4.37345703 4.89916016 -4.37345703 4.89916016 -3.54296875 3.83984375 C-2 2 -2 2 0 0 Z " fill="#159BD7" transform="translate(628,320)"/>
<path d="M0 0 C0.185625 0.9590625 0.185625 0.9590625 0.375 1.9375 C0.684375 2.9584375 0.684375 2.9584375 1 4 C1.66 4.33 2.32 4.66 3 5 C2.01 6.485 2.01 6.485 1 8 C0.34 7.67 -0.32 7.34 -1 7 C-1.66 8.32 -2.32 9.64 -3 11 C-2.69217504 9.35328588 -2.37860766 7.70764424 -2.0625 6.0625 C-1.88847656 5.14597656 -1.71445312 4.22945313 -1.53515625 3.28515625 C-1 1 -1 1 0 0 Z " fill="#1D96D1" transform="translate(733,363)"/>
<path d="M0 0 C2.375 -0.1875 2.375 -0.1875 5 0 C7 3 7 3 7 6 C4.0625 5.25 4.0625 5.25 1 4 C0.125 1.875 0.125 1.875 0 0 Z " fill="#1998D3" transform="translate(687,272)"/>
<path d="M0 0 C0.66 0.33 1.32 0.66 2 1 C0.92807816 2.3218362 -0.15802695 3.63217927 -1.25 4.9375 C-1.85328125 5.66839844 -2.4565625 6.39929688 -3.078125 7.15234375 C-5.10741134 9.10326334 -6.254407 9.61731779 -9 10 C-8.06409496 8.8944811 -7.12620142 7.79064547 -6.1875 6.6875 C-5.66542969 6.07261719 -5.14335937 5.45773437 -4.60546875 4.82421875 C-3.12827531 3.14575321 -1.59960869 1.56117966 0 0 Z " fill="#0E7ABA" transform="translate(288,269)"/>
<path d="M0 0 C0.66 0.33 1.32 0.66 2 1 C1.67 2.32 1.34 3.64 1 5 C0.01 5 -0.98 5 -2 5 C-2.66 6.65 -3.32 8.3 -4 10 C-4.33 9.34 -4.66 8.68 -5 8 C-4.00390625 6.0546875 -4.00390625 6.0546875 -2.5625 3.875 C-2.08941406 3.15054687 -1.61632812 2.42609375 -1.12890625 1.6796875 C-0.75636719 1.12539063 -0.38382813 0.57109375 0 0 Z " fill="#169BD6" transform="translate(662,491)"/>
<path d="M0 0 C4.22797927 3.08290155 4.22797927 3.08290155 6 5 C6.375 7.8125 6.375 7.8125 6 10 C2.51668565 6.98112756 1.20842856 4.43090471 0 0 Z " fill="#F02219" transform="translate(593,399)"/>
<path d="M0 0 C0.66 0 1.32 0 2 0 C2 0.66 2 1.32 2 2 C2.66 2 3.32 2 4 2 C4.66 4.64 5.32 7.28 6 10 C3.38275905 7.63202009 1.67138271 5.10399646 0 2 C0 1.34 0 0.68 0 0 Z " fill="#EC241A" transform="translate(626,456)"/>
<path d="M0 0 C0.33 0.99 0.66 1.98 1 3 C-4.2734375 6.22265625 -4.2734375 6.22265625 -6 7 C-6.66 6.67 -7.32 6.34 -8 6 C-5.36 4.02 -2.72 2.04 0 0 Z " fill="#F52116" transform="translate(609,281)"/>
<path d="M0 0 C0.86625 0.2784375 0.86625 0.2784375 1.75 0.5625 C3.99032525 1.16768484 3.99032525 1.16768484 6.125 0.4375 C6.74375 0.293125 7.3625 0.14875 8 0 C8.66 0.66 9.32 1.32 10 2 C7.36 2.66 4.72 3.32 2 4 C1.34 2.68 0.68 1.36 0 0 Z " fill="#E52E2A" transform="translate(680,275)"/>
<path d="M0 0 C1.60080151 4.00200378 0.29279692 7.04556236 -1 11 C-1.66 10.67 -2.32 10.34 -3 10 C-2.39009109 6.44219804 -1.4216319 3.3171411 0 0 Z " fill="#ED2417" transform="translate(732,360)"/>
<path d="M0 0 C2.875 -0.1875 2.875 -0.1875 6 0 C6.66 0.99 7.32 1.98 8 3 C5.03 3 2.06 3 -1 3 C-0.67 2.01 -0.34 1.02 0 0 Z " fill="#1A93CC" transform="translate(665,376)"/>
<path d="M0 0 C0.99 0 1.98 0 3 0 C3 1.65 3 3.3 3 5 C1.02 5.99 1.02 5.99 -1 7 C-1 4.37886292 -0.68707555 2.49064888 0 0 Z " fill="#E3312C" transform="translate(683,369)"/>
<path d="M0 0 C0.99 0.33 1.98 0.66 3 1 C3.66 0.67 4.32 0.34 5 0 C5 0.99 5 1.98 5 3 C4.071875 3.1546875 4.071875 3.1546875 3.125 3.3125 C0.63473516 3.87525373 0.63473516 3.87525373 -1 7 C-0.67 4.69 -0.34 2.38 0 0 Z " fill="#1E95CD" transform="translate(619,332)"/>
<path d="M0 0 C0.33 0.66 0.66 1.32 1 2 C0.34 1.67 -0.32 1.34 -1 1 C-0.67 0.67 -0.34 0.34 0 0 Z M-3 1 C-2.34 1.33 -1.68 1.66 -1 2 C-1.66 3.65 -2.32 5.3 -3 7 C-3.99 6.01 -4.98 5.02 -6 4 C-5.01 3.01 -4.02 2.02 -3 1 Z " fill="#E42E29" transform="translate(594,295)"/>
</svg>
