<svg xmlns="http://www.w3.org/2000/svg" data-name="ICON BLACK" viewBox="0 0 32 40" x="0px" y="0px"><title>mumbai</title><path d="M4.47,8.44V11a.5.5,0,0,0,.5.5H6.5v7.93a.49.49,0,0,0-.41.48.5.5,0,0,0,.41.48v3a.49.49,0,0,0-.41.48.5.5,0,0,0,.41.48V28.5H5.59a.5.5,0,0,0,0,1H26.41a.5.5,0,0,0,0-1H25.5V24.39a.5.5,0,0,0,.41-.48.49.49,0,0,0-.41-.48v-3a.5.5,0,0,0,.41-.48.49.49,0,0,0-.41-.48V11.5H27a.5.5,0,0,0,.5-.5V8.44a.5.5,0,0,0-.5-.5H24.91v-3a.5.5,0,0,0-.5-.5h-4V3a.5.5,0,0,0-.5-.5H12.13a.5.5,0,0,0-.5.5V4.4h-4a.5.5,0,0,0-.5.5v3H5A.5.5,0,0,0,4.47,8.44Zm7.87,11h0v-.22a3.69,3.69,0,0,1,7.38,0v.22h0a.5.5,0,0,0-.5.5.5.5,0,0,0,.5.5h0v3h0a.5.5,0,0,0-.5.5.5.5,0,0,0,.5.5h0V28.5H12.31V24.41h0a.5.5,0,0,0,.5-.5.5.5,0,0,0-.5-.5h0v-3h0a.5.5,0,0,0,.5-.5A.5.5,0,0,0,12.34,19.41Zm8.35,1H24.5v3H20.69Zm-9.38,3H7.5v-3h3.81Zm-3.81,1h3.81V28.5H7.5ZM20.69,28.5V24.41H24.5V28.5Zm3.81-9.09H20.69v-.22a4.69,4.69,0,0,0-9.38,0v.22H7.5V11.5h17ZM12.63,3.5h6.75v.9H12.63ZM8.09,7.17h9.43a.5.5,0,0,0,.5-.5.5.5,0,0,0-.5-.5H8.09V5.4H23.91V7.94H8.09ZM5.47,8.94H26.53V10.5H5.47Zm4.06,6.31v-.59a.5.5,0,0,1,1,0v.59a.5.5,0,0,1-1,0Zm11.94,0v-.59a.5.5,0,1,1,1,0v.59a.5.5,0,0,1-1,0Z"/><text x="0" y="47" fill="#000000" font-size="5px" font-weight="bold" font-family="'Helvetica Neue', Helvetica, Arial-Unicode, Arial, Sans-serif">Created by Philipp Petzka</text><text x="0" y="52" fill="#000000" font-size="5px" font-weight="bold" font-family="'Helvetica Neue', Helvetica, Arial-Unicode, Arial, Sans-serif">from the Noun Project</text></svg>